<svg width="246" height="363" viewBox="0 0 246 363" fill="none" xmlns="http://www.w3.org/2000/svg">
<path fill-rule="evenodd" clip-rule="evenodd" d="M229.804 260.12C229.804 257.685 226.436 253.364 226.43 251.159C229.262 250.653 231.629 246.815 231.002 244.411C229.897 243.566 227 241.903 225.802 241.126C218.502 241.347 221.276 231.188 220.45 226.024C219.618 220.971 219.001 215.688 217.783 210.607C215.621 206.542 214.606 201.984 212.54 197.938C211.617 196.598 210.125 195.369 209.679 193.811C205.157 188.871 198.933 185.91 193.811 181.727C195.799 181.09 195.666 178.408 195.538 176.685C196.001 174.438 195.506 171.62 193.458 170.354C192.766 168.098 189.74 167.31 187.97 168.747C186.808 163.536 182.26 160.374 177.497 158.44C177.501 158.425 177.505 158.41 177.509 158.394C172.705 156.487 166.947 155.536 162.153 156.608C164.684 128.404 143.09 127.368 132.131 129.739C126.526 130.951 118.115 134.726 116.204 139.973C115.126 142.935 112.03 152.489 111.589 155.536C103.221 150.759 93.5193 144.459 86.2608 154.077C84.8074 155.753 83.199 156.998 81.0241 157.574C74.2336 159.337 65.2206 159.396 61.361 166.321C59.0541 170.611 61.1288 173.437 60.509 177.729C29.9415 199.204 4.39694 278.313 10.1325 315.117C11.5123 328.288 18.2487 351.601 34.876 348.694C43.3566 357.974 185.701 357.974 200.379 348.694C212.461 351.856 224.737 346.962 229.804 335.386C236.238 319.512 229.42 302.37 228.212 286.086C227.478 281.975 226.386 278.712 225.802 274.503C225.559 272.749 226.398 269.831 225.802 268.215C226.083 267.162 229.804 262.554 229.804 260.12Z" fill="#D9D9D9"/>
<path fill-rule="evenodd" clip-rule="evenodd" d="M162.52 147.492C162.856 148.932 162.549 150.556 162.605 152.034C162.659 153.447 162.826 154.851 163.071 156.243C165.652 154.885 168.702 154.71 171.643 155.147C175.448 155.713 179.85 156.964 182.832 159.507C183.568 160.135 184.178 160.879 184.689 161.699C185.301 162.683 185.693 163.794 186.664 164.499C188.167 165.59 190.031 166.012 191.476 167.22C192.949 168.452 193.864 170.294 194.057 172.195C194.16 173.207 193.993 174.152 193.801 175.139C193.629 176.027 193.714 176.391 193.948 177.246C194.131 177.917 193.781 178.678 193.21 179.048C194.434 179.889 195.641 180.755 196.827 181.656C203.738 186.903 209.581 193.444 213.632 201.139L213.73 201.33L213.843 201.56C214.831 203.589 217.413 209.521 217.734 210.854C217.964 211.551 218.186 212.25 218.393 212.953C218.938 214.818 219.401 216.705 219.784 218.608L219.887 219.127C220.198 220.725 220.734 222.618 220.648 224.322C221.545 228.972 222.339 233.642 223.018 238.332C223.107 238.946 222.862 239.446 222.483 239.777C223.39 239.923 224.292 240.102 225.183 240.283L225.701 240.392L225.96 240.449C227.818 240.868 229.65 241.478 230.867 243.039C232.178 244.727 232.205 246.896 230.888 248.596C229.769 250.04 228.136 250.726 226.431 251.159C226.094 251.243 225.754 251.321 225.414 251.39C225.186 251.438 225.036 251.126 225.252 251.005L225.614 250.805L226.108 250.535C227.393 249.826 228.727 249.026 229.438 247.747C230.404 246.011 229.64 244.404 227.983 243.523C226.596 242.784 224.88 242.595 223.339 242.343L222.703 242.238C221.093 241.981 219.45 241.814 217.824 241.998C216.402 242.16 214.961 242.645 213.812 243.514L213.706 243.598L213.596 243.69C212.588 244.564 211.139 246.526 213.04 247.091C214.492 247.521 216.262 247.414 217.789 247.498L217.986 247.51C219.264 247.597 220.6 247.597 221.893 247.75C222.356 247.804 222.813 247.879 223.262 247.985C224.546 248.289 224.104 249.998 222.973 250.118C222.696 250.148 222.413 250.163 222.13 250.169C221.391 250.726 220.368 250.978 219.493 251.324C218.657 251.655 217.818 251.983 216.973 252.305C217.701 252.338 218.429 252.398 219.154 252.489C219.388 252.515 219.391 252.832 219.154 252.856C217.409 253.033 215.665 253.226 213.926 253.469C211.235 253.842 208.561 254.342 205.948 255.103C204.038 255.661 202.151 256.327 200.322 257.103L199.768 257.341L199.54 257.441C197.879 258.161 195.73 259.004 194.776 260.59C194.277 261.418 194.057 262.696 194.761 263.488C195.514 264.34 197.09 264.243 198.144 264.284L198.228 264.288C200.46 264.396 202.694 264.411 204.929 264.333C209.611 264.168 214.297 263.656 218.895 262.756C219.743 262.591 220.11 263.864 219.256 264.062C213.832 265.323 208.348 266.015 202.783 266.047L202.174 266.048C200.006 266.463 197.88 267.081 195.772 267.779L195.35 267.919C194.105 268.34 191.979 268.759 191.245 269.995C190.758 270.816 190.929 271.379 191.411 271.761C192.259 272.432 194.063 272.558 194.941 272.591C198.46 272.724 201.981 272.748 205.503 272.672C207.263 272.633 209.022 272.57 210.781 272.48C212.501 272.39 214.338 272.134 216.053 272.299C216.79 272.372 217.036 273.455 216.236 273.657C214.122 274.192 211.751 274.145 209.567 274.214L209.316 274.222C206.971 274.306 204.622 274.342 202.276 274.336C200.263 274.328 198.25 274.288 196.239 274.214L194.46 274.143L194.146 274.128C193.198 274.077 192.23 273.968 191.39 273.578C190.614 274.878 191.194 276.62 192.195 277.649C193.149 278.63 194.523 279.111 195.84 279.412C195.964 279.439 196.087 279.466 196.211 279.49C199.104 280.079 202.051 280.029 204.757 281.358C207.034 282.477 209.118 284.342 211.668 284.785C213.948 285.182 215.605 284.177 216.82 282.318C216.886 282.216 216.952 282.113 217.015 282.011C217.971 280.47 218.66 278.774 219.668 277.263C220.182 276.494 220.762 275.753 221.472 275.152C221.791 274.878 224.022 273.693 224.371 273.338C225.872 271.797 224.543 268.557 224.934 266.626C225.39 264.378 227.367 263.587 228.551 261.845C230.804 258.53 224.627 255.425 226.473 251.799C226.497 251.755 226.527 251.721 226.566 251.7C226.729 251.613 226.988 251.721 226.973 251.935C226.768 254.637 229.342 256.496 230.272 258.836C231.33 261.499 229.64 263.112 227.914 264.89C225.7 267.173 227.258 269.73 226.765 272.48C226.701 272.841 226.597 273.158 226.463 273.443C226.841 273.677 227.133 274.066 227.197 274.609C227.956 281.047 228.772 287.465 230.104 293.814L230.389 295.163L230.771 296.963C231.72 301.464 232.607 305.983 232.775 310.584C233.304 314.467 233.514 318.383 233.201 322.292C232.25 334.191 225.601 346.64 213.52 350.292C210.724 351.138 207.758 351.357 204.889 350.765C203.906 350.563 202.529 350.118 201.293 349.444C201.366 350.237 201.425 351.03 201.449 351.821C201.856 352.275 202.041 352.96 201.809 353.546C200.823 353.222 199.928 352.709 199.122 352.006L198.988 351.887C198.51 350.11 198.37 348.166 198.301 346.294L198.283 345.762C198.264 345.244 198.253 344.736 198.234 344.239C198.132 341.149 198.204 338.054 198.364 334.967L198.481 332.695C198.749 327.395 198.968 322.107 198.821 316.793C198.653 310.676 198.129 304.587 197.474 298.504C197.134 295.366 196.749 292.234 196.355 289.102C196.039 286.581 195.51 283.867 195.501 281.268C193.477 280.835 191.489 280.004 190.244 278.305C188.923 276.503 188.728 274.198 189.901 272.351C188.767 270.798 189.697 269.336 191.098 268.349C188.945 267.143 187.745 263.851 187.426 261.562C187.209 259.992 187.14 257.642 187.811 255.876C186.849 255.909 185.886 256.009 184.924 256.174C183.811 256.37 182.72 256.655 181.643 257.01L181.098 257.191C180.823 257.283 180.513 257.392 180.205 257.519C182.151 260.738 179.652 263.656 176.446 264.49C175.836 264.649 175.213 264.76 174.585 264.85C173.168 265.046 171.722 265.106 170.317 265.236C167.629 265.482 164.925 265.834 162.228 265.949C161.635 265.976 161.253 265.699 161.073 265.314C161.067 265.308 161.064 265.305 161.064 265.299C161.001 265.197 160.958 265.088 160.943 264.974C160.953 264.983 160.965 264.989 160.973 264.995C160.844 264.273 161.277 263.394 162.228 263.289C166.122 262.85 170.071 262.829 173.977 262.507L174.227 262.486C175.454 262.38 176.898 262.186 177.869 261.409C178.771 260.687 178.852 259.748 178.491 258.9C178.485 258.921 178.479 258.945 178.476 258.966C178.449 259.134 178.218 259.128 178.142 259.011C177.917 258.668 177.86 258.331 177.917 258.006C177.646 257.693 177.318 257.416 176.964 257.203C175.39 256.246 173.322 255.985 171.532 255.701C169.575 255.392 167.602 255.25 165.626 255.157C161.737 254.973 157.837 255.29 154.012 255.987C153.852 256.015 153.786 255.792 153.942 255.741C155.434 255.247 156.959 254.832 158.501 254.504C158.465 254.498 158.429 254.492 158.393 254.483C158.258 254.45 158.161 254.285 158.207 254.152C158.213 254.131 158.222 254.11 158.231 254.092C157.575 253.791 157.302 252.78 158.096 252.371C160.57 251.093 163.475 250.515 166.191 249.988C168.799 249.486 171.433 249.134 174.071 248.821C178.53 248.298 183.393 248.31 187.684 246.902L187.861 246.842C189.609 246.239 191.695 245.018 191.817 242.955C191.997 239.835 187.363 240.647 185.432 240.722C180.148 240.924 174.871 241.291 169.611 241.857C168.537 241.971 167.463 242.088 166.39 242.209C164.745 242.392 163.097 242.585 161.455 242.789C160.538 242.903 159.599 243.054 158.655 243.198C158.36 243.271 158.072 243.322 157.783 243.349C157.761 243.351 157.744 243.346 157.729 243.337C156.354 243.529 154.974 243.676 153.633 243.635C153.479 243.632 153.383 243.391 153.546 243.318C155.278 242.585 157.205 242.151 159.139 241.811C160.336 240.918 161.782 240.202 162.97 239.51C164.6 238.559 166.468 237.16 168.318 236.592C169.15 235.936 170.095 235.409 170.964 235.051C170.714 234.663 170.624 234.124 170.669 233.67C170.835 232.043 172.137 231.134 173.641 230.815C174.107 230.719 174.645 230.647 175.219 230.62C175.231 230.316 175.366 230.018 175.667 229.795L175.756 229.728L175.819 229.678C176.828 228.858 178.832 226.549 176.419 226.381C175.138 226.29 174.055 227.229 173.036 227.864C170.919 229.185 168.871 229.251 166.453 228.923L165.366 228.767L165.185 228.742C163.437 228.513 161.664 228.481 160.688 230.264C159.641 232.172 159.274 233.911 157.163 234.961C155.145 235.963 152.905 236.161 151.052 237.539C149.067 239.013 147.576 241.083 145.952 242.918C142.37 246.962 138.271 250.533 134.049 253.891L133.298 254.486C129.409 257.56 125.396 260.587 121.042 262.955C121.012 262.97 120.982 262.976 120.955 262.976C120.838 262.964 120.75 262.814 120.856 262.712C125.941 257.769 131.89 253.761 137.113 248.951C139.429 246.818 141.633 244.573 143.753 242.245C145.606 240.202 147.248 237.906 149.407 236.167C150.457 235.322 151.591 234.675 152.86 234.224C154.045 233.799 155.374 233.589 156.466 232.939C158.604 231.67 158.396 228.661 160.535 227.295C162.368 226.123 164.601 226.552 166.634 226.83L166.877 226.862C168.194 227.037 169.557 227.184 170.814 226.664C172.058 226.149 173.06 225.186 174.314 224.675C176.061 223.956 178.539 224.127 179.436 226.05C180.292 227.885 179.123 229.546 177.758 230.764C179.619 231.101 181.252 232.001 181.39 233.836C182.756 233.79 184.118 233.742 185.483 233.694C190.238 233.529 195.016 233.21 199.774 233.294C199.666 232.81 199.618 232.31 199.612 231.802C199.609 231.519 199.621 231.236 199.642 230.948C199.678 230.454 200.003 230.156 200.484 230.105L201.559 229.99L201.918 229.955C203.931 229.764 206.183 229.724 207.717 231.056C208.541 231.775 209.205 233.43 208.802 234.534C209.74 234.856 210.634 235.268 211.449 235.788C213.064 235.247 214.76 235.307 216.383 235.872L216.576 235.941C217.731 236.365 219.367 237.168 219.994 238.314C218.471 227.989 216.42 217.753 213.84 207.64C212.194 203.601 210.113 199.741 207.59 196.178C201.236 187.201 192.081 181.027 183.859 173.93C183.134 174.729 182.353 175.489 181.622 176.22L181.312 176.532C179.823 178.04 178.271 179.483 176.684 180.887C173.367 183.82 169.876 186.528 166.409 189.278C159.422 194.824 153.104 200.712 147.848 207.952C147.754 208.083 147.492 208.007 147.565 207.833C151.17 199.26 158.644 192.742 165.433 186.694C169.004 183.514 172.657 180.41 176.09 177.08C177.691 175.527 179.241 173.921 180.704 172.237L181.067 171.814C182.024 170.695 184.263 167.276 185.743 169.743C186.053 170.258 186.039 170.919 185.743 171.435C185.323 172.169 184.789 172.869 184.205 173.542C186.28 174.671 188.312 175.863 190.3 177.125C190.186 176.517 190.215 175.845 190.321 175.173L190.356 174.959L190.5 174.125C190.708 172.896 190.815 171.753 190.035 170.554C189.06 169.054 187.222 168.586 185.757 167.719C184.07 166.72 183.189 165.384 182.285 163.688C180.555 160.441 176.647 159.138 173.287 158.094L172.865 157.963C169.76 157 166.402 156.485 163.299 157.41C163.59 158.766 163.971 160.102 164.447 161.404C164.954 162.79 166.111 164.33 165.993 165.827C165.911 166.863 164.669 167.97 163.638 167.178C162.179 166.058 161.887 164.233 161.496 162.495C161.117 160.814 160.876 159.092 160.773 157.372C160.674 155.714 160.751 154.058 160.956 152.411L161.112 151.202L161.15 150.922C161.321 149.699 161.575 148.417 162.262 147.458C162.328 147.366 162.49 147.364 162.52 147.492ZM120.168 140.62C120.19 140.718 120.205 140.814 120.219 140.911C120.32 141.323 120.357 141.719 120.345 142.117C120.351 142.261 120.34 142.404 120.314 142.547C120.26 143.015 120.147 143.496 119.994 144.022C119.67 145.14 119.298 146.245 118.883 147.333C118.062 149.485 117.093 151.538 115.895 153.506C113.73 157.061 110.979 160.012 107.735 162.563C108.351 163.071 108.952 163.6 109.555 164.119C112.47 166.628 115.305 169.251 118.052 171.943C122.93 176.724 127.709 181.595 132.377 186.581C134.679 189.041 136.938 191.533 139.185 194.041L139.259 194.125L139.339 194.22C140.136 195.186 141.731 197.488 142.921 197.118C143.522 196.931 144.155 196.034 144.565 195.606L145.319 194.819C145.57 194.556 145.819 194.292 146.064 194.023C150.454 189.212 154.607 184.216 158.507 178.994C160.41 176.446 162.25 173.851 164.022 171.21C164.934 169.852 165.828 168.482 166.704 167.101C167.552 165.765 168.237 164.33 169.486 163.333C170.403 162.601 171.673 163.272 171.442 164.471C171.078 166.36 169.771 167.958 168.742 169.554C167.708 171.159 166.65 172.748 165.569 174.32C163.487 177.346 161.314 180.309 159.065 183.212C157.127 185.712 155.106 188.148 153.03 190.535L152.462 191.185C150.229 193.731 148.038 196.435 145.57 198.759C143.361 200.841 140.947 200.234 138.935 198.211C136.389 195.654 134.026 192.888 131.576 190.237C126.681 184.94 121.735 179.683 116.738 174.482L115.096 172.77C113.18 170.77 111.273 168.757 109.415 166.708L109.176 166.441C107.057 164.057 104.903 161.07 101.891 159.858C101.673 159.77 101.753 159.461 101.988 159.504C103.916 159.861 105.526 160.833 107.024 161.993C108.37 159.765 109.571 157.416 110.618 155.013L109.946 154.722C105.139 152.644 99.7213 150.549 94.5605 150.885C92.4807 151.021 90.2616 151.809 88.8256 153.371C87.5252 154.786 86.8759 156.694 85.6826 158.201C84.3158 159.927 82.533 160.704 80.3452 160.774L79.2813 160.806C78.0577 160.846 76.8843 160.91 75.6432 161.179C72.2804 161.909 68.735 163.092 65.9148 165.113C64.8917 165.846 63.8355 166.853 63.3408 167.964C62.8503 169.064 62.7093 170.351 62.6614 171.539C62.6383 172.118 62.8118 172.882 62.6669 173.436C62.6834 173.373 62.6909 173.406 62.693 173.472C63.1438 173.828 63.4509 174.419 63.4842 175.008C66.2955 173.543 69.2057 172.258 72.1724 171.1C75.4757 169.811 78.8815 168.778 82.2879 167.799C85.6218 166.842 89.1116 166.446 92.5101 165.764C92.9429 165.677 93.0933 166.262 92.69 166.417C89.1179 167.789 85.6615 169.416 82.0597 170.708C78.4596 171.999 74.8863 173.396 71.3905 174.949C64.6336 177.952 58.1068 181.772 52.7835 186.956C47.5845 192.02 43.5742 198.171 39.8445 204.355C36.0883 210.583 32.736 217.038 29.7483 223.668C23.8376 236.785 19.4054 250.576 16.4874 264.663C13.6476 278.372 12.0609 292.57 12.5893 306.581C12.8401 313.236 13.6527 319.896 15.5425 326.296C16.4453 329.354 17.5755 332.342 19.0034 335.194C20.5091 338.202 22.5379 340.881 23.9128 343.939C24.0259 344.19 24.0692 344.432 24.0629 344.656C29.9272 349.739 39.1062 346.314 45.4529 343.28C60.0565 336.294 74.3894 328.649 88.0127 319.876C101.458 311.217 114.201 301.554 126.642 291.524C125.68 290.531 124.831 289.418 124.086 288.41C122.546 286.328 121.388 283.97 120.591 281.508C119.659 278.626 119.37 275.543 119.635 272.531L119.71 271.68C119.963 268.836 120.256 265.95 120.88 263.172C120.886 263.136 120.913 263.12 120.943 263.12C120.973 263.12 121.003 263.139 121.015 263.172C122.696 268.554 122.832 274.339 124.72 279.652C125.481 281.789 126.66 283.852 128.073 285.624C128.684 286.391 129.4 287.056 130.13 287.706C130.179 287.375 130.244 287.047 130.344 286.725L130.422 286.471C130.52 286.161 130.641 285.817 130.81 285.513C130.572 285.444 130.341 285.369 130.112 285.284C129.932 285.218 129.893 284.926 130.112 284.878C130.711 284.74 131.327 284.671 131.956 284.641C132.055 284.626 132.151 284.623 132.247 284.629C133.423 284.592 134.62 284.677 135.754 284.695C137.718 284.725 139.676 284.761 141.636 284.848C145.39 285.01 149.627 285.73 153.32 284.857C156.676 284.063 159.984 281.824 162.675 279.718C165.027 277.877 166.841 275.69 168.792 273.509C168.652 273.531 168.513 273.552 168.375 273.571L167.116 273.744C165.528 273.956 163.642 274.122 162.381 273.359C161.9 273.067 162.038 272.405 162.528 272.224C163.815 271.752 165.412 272.143 166.783 272.077C167.86 272.026 168.949 271.912 170.011 271.689C170.36 271.617 170.705 271.533 171.048 271.433C173.562 270.708 176.516 268.157 174.519 265.371C174.443 265.266 174.527 265.17 174.63 265.151C174.675 265.142 174.723 265.151 174.762 265.185C177.036 267.068 175.854 270.443 173.703 271.891C172.964 272.39 172.128 272.739 171.262 272.995C171.427 273.298 171.457 273.672 171.258 274.026C169.575 277.029 166.724 279.667 164.053 281.789C161.31 283.966 158.147 286.021 154.745 286.984C150.818 288.091 146.502 287.258 142.518 286.906C140.358 286.716 138.205 286.491 136.049 286.241C135.471 286.175 134.873 286.124 134.265 286.067C134.837 286.819 135.291 287.685 135.589 288.206C136.557 289.896 135.664 292.123 133.787 292.64C133.592 292.694 133.39 292.724 133.192 292.73C132.686 293.744 131.483 294.49 130.371 294.108C129.887 293.943 129.42 293.717 128.973 293.447C121.974 299.596 114.606 305.366 107.028 310.776C92.9748 320.806 78.2445 329.967 62.9706 338.021C59.5302 339.835 56.0636 341.6 52.5675 343.297L49.5584 344.748C46.2277 346.351 42.819 347.946 39.2818 348.941C38.5922 349.135 37.8702 349.292 37.1304 349.412C37.1208 349.478 37.1184 349.542 37.1227 349.602C36.4576 349.691 35.8773 349.705 35.3817 349.643L35.2688 349.627C30.9332 349.931 26.2955 348.872 23.5062 345.704C23.0413 346.03 22.3634 346.066 21.7653 345.597C18.7571 343.235 16.9638 339.64 15.39 336.208C13.7943 332.726 12.5436 329.097 11.6246 325.38C9.78888 317.956 9.0608 310.297 9.02243 302.66C8.88367 273.231 16.251 243.544 29.0479 217.123C32.2934 210.422 35.8709 203.847 39.8424 197.548C43.803 191.266 48.4022 185.428 54.292 180.847C55.9858 179.53 57.7478 178.325 59.5651 177.216C58.3453 176.611 57.8608 175.073 57.7754 173.706C57.586 170.672 57.9474 167.175 59.7236 164.615C62.2152 161.023 66.6753 158.808 70.811 157.731C72.97 157.169 75.2032 156.841 77.4302 156.73C78.5784 156.673 79.7714 156.862 80.9057 156.738C81.9066 156.629 82.5255 156.032 83.1011 155.246C84.5756 153.232 85.5355 151.12 87.6506 149.644C89.8207 148.13 92.6328 147.551 95.2471 147.708C98.2926 147.891 101.071 149.091 103.753 150.471C106.174 151.716 108.524 153.095 110.814 154.566C111.234 153.582 111.63 152.59 111.997 151.595C112.711 149.666 113.331 147.676 113.835 145.682C114.345 143.66 114.27 140.99 115.812 139.469C117.152 138.147 119.733 138.666 120.168 140.62ZM224.065 275.541L224.054 275.543C220.936 277.392 219.445 282.011 217.978 284.03C218.098 284.706 218.182 285.395 218.347 286.036C218.726 287.508 219.222 288.967 219.797 290.369C220.808 292.845 222.074 295.203 223.243 297.604C224.185 299.535 225.107 301.501 225.825 303.533C225.747 303.611 225.675 303.703 225.614 303.818C224.836 305.276 224.226 304.989 222.79 304.671L222.789 304.668C221.968 302.153 220.783 299.791 219.719 297.378L219.46 296.789L219.204 296.2C218.314 294.134 217.503 292.05 217.03 289.836C216.729 288.425 216.606 286.975 216.588 285.534C215.809 286.175 214.874 286.635 213.695 286.812C211.173 287.194 208.888 285.613 206.833 284.345L206.37 284.062C205.083 283.279 203.808 282.555 202.324 282.185C200.64 281.764 198.899 281.764 197.188 281.551C196.983 281.523 196.776 281.496 196.568 281.464C197.236 283.675 197.546 286.076 197.943 288.29C198.496 291.395 198.947 294.527 199.38 297.649C200.222 303.703 200.809 309.803 201.106 315.908C201.394 321.819 201.249 327.707 201.035 333.616L200.929 336.497C200.843 338.843 200.773 341.192 200.814 343.538C200.929 343.547 201.043 343.565 201.158 343.592C202.343 343.869 203.151 345.078 204.234 345.617C206.519 346.754 209.28 346.739 211.713 346.165C217.247 344.853 221.848 340.99 224.879 336.27C228.518 330.608 229.854 323.943 229.811 317.277C229.761 309.774 228.547 302.6 226.856 295.356L226.747 294.894C225.324 288.859 224.432 275.598 224.065 275.541ZM69.115 260.402C69.1466 262.42 68.3262 264.579 67.8754 266.539C67.39 268.652 66.9058 270.765 66.415 272.877L65.9736 274.769C65.606 276.346 65.2437 277.924 64.9189 279.511C64.6518 280.815 64.5399 282.534 64.1024 283.971C69.3072 281.865 74.5201 279.781 79.7243 277.682C86.1359 275.095 92.5776 272.579 99.0043 270.034C105.407 267.501 111.773 264.619 118.306 262.453C119.86 261.935 120.913 264.417 119.424 265.106C112.79 268.184 105.771 270.594 98.9742 273.29L89.1428 277.194C80.1301 280.772 71.1113 284.332 62.0472 287.769C55.8731 290.11 49.7231 292.52 43.5099 294.743C40.5477 295.802 37.5587 296.804 34.6112 297.902C32.1422 298.823 29.4717 300.189 28.5575 302.842C28.5094 302.98 28.3199 302.923 28.3409 302.782C28.7108 300.213 30.6178 298.606 32.7677 297.391C35.6213 295.773 38.7555 294.596 41.7677 293.299L42.1777 293.122C48.3286 290.438 54.5291 287.863 60.748 285.331C60.6863 285.181 60.65 285.02 60.6472 284.851L60.6295 284.856C60.5164 283.706 61.0436 282.68 61.4228 281.61L62.5106 278.54C63.2354 276.496 63.8855 274.427 64.5553 272.364C65.2557 270.208 65.9627 268.054 66.6685 265.9C67.2664 264.075 67.6682 261.901 68.691 260.27C68.8143 260.073 69.1541 260.184 69.115 260.402ZM188.894 255.864L188.816 256.256C188.726 256.714 188.641 257.176 188.62 257.639C188.56 258.852 188.698 260.064 189.02 261.234C189.336 262.392 189.778 263.512 190.406 264.538C191.002 265.503 191.865 266.262 192.415 267.251C192.472 267.356 192.508 267.462 192.523 267.564C192.734 267.477 192.942 267.399 193.143 267.335C194.821 266.803 196.535 266.358 198.273 266.024L197.998 266.005L197.82 265.991C194.915 265.745 192.175 264.795 192.767 261.403C193.102 259.485 194.607 258.199 196.219 257.288L196.421 257.176C196.508 257.127 196.599 257.079 196.685 257.037C195.227 256.791 194.169 256.487 192.379 256.186C191.218 255.991 190.054 255.882 188.894 255.864ZM56.2129 214.081C59.0687 219.853 61.2171 225.991 62.8381 232.217C63.6206 235.224 64.2848 238.261 64.8188 241.322L64.9941 242.344L65.0938 242.899C65.5926 245.627 66.2262 248.583 65.4936 251.245C65.2545 252.115 63.811 252.459 63.4068 251.518C62.1876 248.678 62.359 245.413 62.0057 242.374C61.6343 239.185 61.1275 236.011 60.496 232.863C59.2829 226.815 57.5802 220.908 55.6824 215.046L55.4707 214.394C55.3095 213.96 56.0114 213.674 56.2129 214.081ZM165.981 239.904C165.129 240.304 164.278 240.671 163.527 241.038C163.47 241.068 163.41 241.095 163.349 241.125C164.2 240.981 165.054 240.846 165.908 240.719C165.9 240.442 165.927 240.169 165.981 239.904ZM199.282 237.013C199.154 237.054 199.041 237.122 198.943 237.214L198.895 237.262C198.778 237.371 198.695 237.5 198.646 237.649C198.571 237.793 198.536 237.947 198.542 238.113L198.585 238.433C198.643 238.637 198.746 238.813 198.895 238.964L199.138 239.152C199.302 239.247 199.478 239.301 199.665 239.313L199.745 239.316L199.989 239.316C200.128 239.312 200.259 239.277 200.382 239.212C200.51 239.171 200.623 239.104 200.721 239.012L200.769 238.964C200.887 238.854 200.969 238.725 201.018 238.576C201.082 238.453 201.117 238.322 201.122 238.183L201.122 238.113L201.079 237.793C201.029 237.614 200.943 237.456 200.823 237.319L200.769 237.262L200.526 237.073C200.362 236.978 200.186 236.924 199.999 236.912L199.919 236.909H199.745C199.58 236.903 199.425 236.938 199.282 237.013ZM191.457 236.606C190.818 236.723 190.456 237.498 190.617 238.086C190.796 238.736 191.414 239.026 192.035 238.937L192.097 238.927C192.824 238.793 193.536 238.844 194.229 239.1C194.838 239.325 195.547 238.848 195.709 238.259C195.893 237.587 195.48 237.005 194.868 236.779C193.771 236.374 192.593 236.396 191.457 236.606ZM64.7548 193.868C66.21 196.002 67.1185 198.838 68.0148 201.275L68.1044 201.518C69.0571 204.08 69.9761 206.662 70.8332 209.258C72.5441 214.44 74.7737 219.863 75.1858 225.337C75.2618 226.348 73.7164 226.753 73.2683 225.857C71.9808 223.283 71.2885 220.599 70.5268 217.839C69.8002 215.207 69.0433 212.584 68.286 209.961C67.5291 207.339 66.7968 204.709 66.0513 202.084C65.3262 199.53 64.3166 196.69 64.1506 194.032C64.129 193.687 64.5876 193.623 64.7548 193.868ZM97.5977 176.694C99.5402 178.043 101.131 180.016 102.775 181.703C104.442 183.415 106.088 185.142 107.718 186.89C110.441 189.812 113.116 192.781 115.878 195.667C121.383 201.417 127.61 206.709 135.207 209.412C137.046 210.066 136.24 213.018 134.398 212.35C126.627 209.531 120.19 204.32 114.512 198.425C111.571 195.372 108.872 192.11 106.241 188.789C105.01 187.235 103.788 185.676 102.583 184.103L101.862 183.157C100.348 181.157 98.4942 179.164 97.3857 176.907C97.3234 176.78 97.46 176.599 97.5977 176.694Z" fill="#1A1A1A"/>
<path fill-rule="evenodd" clip-rule="evenodd" d="M137.677 17.6621C151.141 17.6621 167.296 24.192 168.669 24.3226L168.706 24.3245C169.429 24.3245 172.253 26.4766 177.177 30.7807L171.843 41.1883L172.275 41.6007C174.341 43.5819 176.104 45.3877 177.496 46.8112C188.861 58.4344 190.904 104.07 188.226 119.985C185.547 135.9 180.586 151.473 157.49 151.473C134.394 151.473 108.7 137.58 104.742 133.254C102.103 130.37 99.139 128.988 95.8497 129.109C95.7145 128.938 95.5804 128.768 95.4474 128.598L94.9635 128.53C90.4112 127.87 87.1494 126.982 85.1782 125.867C81.3279 123.688 77.0959 112.231 77.0959 109.708C77.0959 107.209 70.7767 89.0342 70.6503 87.1108L70.6483 87.0575C70.6483 85.4497 62.3929 78.0585 62.3929 75.7112C62.3929 73.3639 60.7289 73.5063 62.3929 65.2348L62.8763 62.8049C64.6471 53.9982 68.113 39.4156 81.3279 33.079C95.8497 26.1157 124.076 17.6621 137.677 17.6621Z" fill="#D9D9D9"/>
<path fill-rule="evenodd" clip-rule="evenodd" d="M79.0863 32.752C86.3288 25.0617 127.446 13.1667 148.248 15.6882L148.872 15.769C150.532 15.9796 152.168 16.2985 153.783 16.7317C159.001 17.9511 164.392 19.7974 168.705 22.8814C172.305 25.4044 183.661 29.5245 180.314 36.1246C181.555 38.4769 182.018 41.3832 181.18 43.7C181.074 44.5003 180.827 45.2374 180.512 46.0015C183.164 49.9159 185.263 54.3426 186.962 58.553C189.932 69.1493 191.78 80.1767 192.051 90.9878C192.951 111.528 190.7 136.062 172.818 149.344C162.015 157.761 145.093 158.043 132.954 147.608C132.265 146.792 129.025 144.591 130.106 144.205C130.428 144.545 130.759 144.876 131.095 145.201C131.08 145.165 131.077 145.129 131.083 145.09L130.767 144.803C130.17 144.251 129.397 143.45 130.277 143.607C130.316 143.652 130.359 143.691 130.4 143.736C130.587 143.848 130.728 143.945 130.837 144.03L130.894 144.076L130.876 144.057C130.369 143.517 130.065 142.965 130.823 143.317L130.924 143.366C131.261 143.721 131.603 144.061 131.952 144.392C131.947 144.353 131.952 144.314 131.974 144.272L131.648 143.957C131.331 143.646 131.379 143.645 131.535 143.393C130.86 142.447 132.119 143.009 132.208 143.378C132.996 143.191 133.688 144.672 134.196 144.852C156.45 161.968 188.745 146.781 188.222 99.0885L188.214 98.1554C188.061 82.9054 186.778 67.2313 180.473 53.4265C179.859 52.0968 179.173 50.8031 178.419 49.5516C177.899 48.6129 177.342 47.6983 176.744 46.8078C175.068 46.6724 173.414 46.3656 171.785 45.8902C171.225 45.7488 170.672 45.5924 170.119 45.4088C162.035 45.8499 154.131 46.3298 146.025 46.7846L143.493 46.9424C136.626 47.384 129.524 48.0914 123.983 52.3405C118.546 56.2088 118.521 63.8369 113.866 68.084C107.229 72.5904 107.181 76.654 105.903 83.295C105.997 88.3012 109.467 95.5749 103.1 97.6817C104.174 99.214 102.677 98.4778 102.559 97.9405C102.547 97.9435 102.535 97.9465 102.526 97.9465C103.483 99.7266 102.076 98.6056 101.951 98.0337C101.876 98.0127 101.801 97.9585 101.726 97.8833C102.69 99.4429 101.131 98.3508 101.224 98.0668C99.36 95.2012 95.5244 94.7563 92.8208 95.5156C92.7877 95.6179 92.6677 95.6269 92.5926 95.5728C81.0964 98.065 84.0626 121.873 95.8435 119.572C96.3478 119.469 96.3358 119.711 96.4359 119.734C96.1638 119.019 96.9309 119.31 96.9228 119.46L96.9696 119.458C97.0066 119.455 96.9915 119.451 97.0191 119.46C96.7559 117.999 98.2367 120.116 98.1197 120.203C98.1652 120.176 98.2163 120.161 98.2614 120.155L98.2104 120.017C97.9647 119.362 97.9857 119.634 97.9874 119.259C97.8028 118.795 97.7892 118.998 97.8325 118.696C98.4815 118.193 98.6731 119.719 98.8896 119.83C98.5185 119.313 98.8135 118.89 99.1636 119.171C101.817 124.754 105.244 130 109.674 134.133C110.158 134.515 110.649 134.891 111.157 135.246C113.041 136.888 115.931 137.943 117.694 139.398C117.694 139.422 117.683 139.452 117.665 139.482L117.705 139.518V139.518L117.746 139.557L118.359 139.852C118.54 140.005 118.702 140.177 118.846 140.366C119 140.544 119.135 140.74 119.25 140.947C119.307 141.2 119.18 141.305 118.94 141.197C118.834 141.161 118.729 141.119 118.624 141.08C118.63 141.089 118.633 141.095 118.639 141.101C118.674 141.153 118.907 141.695 118.638 141.606L118.606 141.594C118.458 141.54 118.311 141.48 118.167 141.422C118.338 141.636 118.494 141.868 118.633 142.063C118.78 142.217 118.87 142.397 118.907 142.602C118.9 142.716 118.838 142.764 118.723 142.749C118.549 142.692 118.377 142.632 118.206 142.569L118.255 142.662C118.376 142.901 118.548 143.301 118.242 143.167C117.98 143.086 117.728 142.993 117.475 142.891C117.454 142.933 117.412 142.948 117.328 142.909C116.525 142.623 115.749 142.274 115.006 141.862C114.354 141.386 113.695 140.92 113.039 140.448C112.423 140.078 111.827 139.666 111.259 139.202C107.456 136.745 104.127 133.623 101.485 130.147C97.0678 133.974 88.2355 130.317 82.7721 127.322C77.9396 124.644 76.0402 119.693 75.5491 114.356C74.5281 107.169 68.6578 104.71 69.0662 88.942C69.0572 88.945 69.0478 88.945 69.0358 88.945C68.8223 88.8818 68.6151 88.7976 68.4196 88.6893C68.2181 88.593 68.0286 88.4787 67.8509 88.3403L67.6314 88.0364V88.0364C67.5174 87.9733 67.4152 87.9071 67.337 87.8409L67.2964 87.8932C67.168 88.0482 67.2543 87.815 67.2618 87.7687L66.8804 87.2498C65.9761 86.0147 64.9841 84.6289 64.1759 83.5207L64.1505 83.5657C64.1322 83.5997 64.1225 83.6242 64.1311 83.635C62.2079 80.8708 60.3993 77.5319 59.8968 74.2996C59.3035 71.8097 59.5353 69.2441 60.0529 66.9378C62.272 58.8614 69.5413 40.5853 79.0863 32.752ZM131.278 144.444L131.157 144.337L131.263 144.469C131.319 144.538 131.376 144.6 131.468 144.663C131.462 144.642 131.462 144.621 131.465 144.596C131.404 144.55 131.341 144.498 131.278 144.444ZM148.156 19.7462C134.049 18.5329 120.174 21.6419 106.713 25.4053L105.784 25.6723C98.1297 27.8572 90.036 29.8233 83.5675 34.5C74.5302 41.4247 69.8634 52.4406 65.7909 62.6115C62.2347 70.1683 64.0526 78.6893 69.4117 83.9659C69.9693 78.7224 70.9199 73.6323 72.4055 68.5831C72.7156 67.7943 72.481 67.5359 73.1492 67.433C74.1585 81.0399 69.1877 91.0931 79.0247 107.219C83.293 114.828 78.3519 120.396 90.4053 124.4L90.7315 124.525C93.2427 125.473 95.985 126.221 98.4445 125.691L98.2242 125.332C97.9995 124.963 97.9313 124.784 98.2581 124.626C98.2494 124.608 98.2373 124.59 98.225 124.569C97.9606 124.069 97.705 123.564 97.4611 123.053C97.3622 123.086 97.2629 123.11 97.1604 123.137C97.2269 123.26 97.2356 123.383 97.0494 123.426C96.3867 123.653 95.7062 123.744 95.0096 123.702L94.8601 123.69C94.0731 123.642 93.5772 123.499 93.1336 123.365C92.9865 123.341 92.8392 123.317 92.6945 123.287C91.2675 122.971 89.7569 122.166 88.7793 121.368C77.6347 115.035 78.7865 93.4798 92.5234 91.4421C92.8052 77.8701 99.258 54.9729 109.967 42.0402C119.647 30.1443 146.074 24.9883 164.459 26.8063C164.727 26.8951 164.995 26.9847 165.263 27.0753C168.1 27.3274 170.803 28.5916 173.642 29.1788C171.604 27.6508 169.292 26.633 166.91 25.7681C162.165 22.8646 156.725 21.2935 151.47 20.1855C150.382 19.9177 149.278 19.7703 148.156 19.7462ZM91.8946 102.345C92.6332 101.944 92.5487 102.331 92.7187 102.219C98.0314 101.785 103.76 106.438 106.73 110.317C106.495 110.561 105.861 109.839 105.749 109.725C105.734 109.74 105.716 109.752 105.698 109.758L105.781 109.875C106.985 111.603 104.599 109.569 104.375 109.15C104.336 109.171 104.297 109.183 104.252 109.174C104.441 109.36 105.019 109.844 105.118 110.188L105.271 110.316C106.715 111.553 106.595 112.484 104.956 110.727C104.995 110.808 105.01 110.883 104.983 110.943L105.039 110.981C105.845 111.545 106.508 113.116 104.823 111.503C104.999 112.681 103.153 110.404 103.094 110.42C99.9008 107.912 95.1994 105.473 91.1939 105.146L91.0561 105.13C90.3211 105.036 89.9736 104.817 90.2316 104.337C89.3264 104.121 89.5384 103.675 89.9669 103.69C89.3285 103.27 89.9032 102.868 90.2737 103.025C90.019 102.319 91.0406 102.789 91.1338 102.691C91.664 101.873 91.8068 102.555 91.8946 102.345ZM80.7585 58.6162C83.3102 57.6811 90.8475 60.4803 90.2446 64.1873C89.8855 65.0385 88.7024 65.5261 87.8709 65.0457L86.7856 64.3165C84.8969 63.0511 83.1935 61.9416 81.1657 60.838C80.062 60.2901 79.5869 59.127 80.7585 58.6162ZM95.2764 53.1072L94.2909 52.4657C88.9728 48.9837 81.4547 43.7078 94.7877 49.1664C96.3073 49.8183 98.3264 50.204 99.1556 51.6517C100.458 54.32 97.0303 54.4993 95.2764 53.1072ZM95.874 37.4843C95.4473 35.8643 100.757 37.7653 102.303 38.2666L102.539 38.3555C104.042 38.916 105.766 39.436 106.665 40.7341C107.719 42.5278 105.586 42.8994 104.265 42.0892C101.556 40.3184 98.5866 38.9823 95.874 37.4843ZM109.377 29.9375C106.388 26.6723 114.387 29.8003 115.585 30.6686L115.62 30.6942C116.514 31.3238 116.332 32.6801 115.492 33.0784C113.103 33.1238 111.344 31.131 109.377 29.9375ZM122.978 26.36C118.226 22.9439 124.486 24.5688 126.66 25.9076C128.141 27.2148 126.615 29.4215 122.978 26.36Z" fill="#1A1A1A"/>
<path fill-rule="evenodd" clip-rule="evenodd" d="M153.691 130.846C151.669 130.02 149.865 128.644 148.546 126.886C148.088 126.275 147.969 125.63 148.065 125.039C148.173 124.376 148.566 123.774 149.101 123.371C149.638 122.966 150.31 122.766 150.959 122.868C151.523 122.956 152.085 123.266 152.53 123.907L152.623 124.035C153.407 125.096 154.428 125.966 155.592 126.528C156.714 127.068 157.969 127.321 159.268 127.174C161.741 126.895 163.446 125.557 165.257 123.739C165.482 123.51 165.707 123.273 165.933 123.033C166.075 122.815 166.273 122.675 166.493 122.602C166.737 122.52 167.013 122.525 167.265 122.613C167.509 122.698 167.727 122.859 167.873 123.074C168.012 123.278 168.091 123.53 168.065 123.82C167.9 125.703 166.916 127.384 165.518 128.703C163.965 130.169 161.907 131.183 159.97 131.538C157.835 131.93 155.66 131.649 153.691 130.846V130.846ZM160.977 101.796C163.248 103.176 166.708 106.396 164.265 109.82C161.389 112.839 157.249 109.378 155.208 107.812C153.317 106.599 151.191 109.719 152.946 111.136C167.689 122.055 173.672 102.157 162.125 100.172C160.854 99.9532 160.382 101.368 160.977 101.796ZM134.557 89.0934C134.808 85.9777 139.551 85.2701 140.023 88.3533C140.446 91.1151 139.948 93.6522 138.705 96.1387C137.516 98.5142 134.53 97.4059 134.304 95.2428C134.001 92.3432 134.401 91.0315 134.557 89.0934ZM170.664 87.714C171.325 86.8475 172.28 86.2561 173.424 86.5903C176.998 87.6352 175.945 92.7114 174.69 95.1823C174.008 96.5241 171.803 96.8644 170.807 95.6829C169.183 93.7563 168.405 89.9087 170.469 88.0109C170.525 87.9128 170.588 87.8139 170.664 87.714ZM138.654 75.46L139.219 75.3612C140.965 75.059 143.137 74.7686 144.373 76.1733C145.028 76.9182 145.254 78.3028 144.373 79.0158C142.823 80.2703 141.11 79.7841 139.254 79.8904C137.723 79.9782 136.253 80.2315 134.779 80.653C131.545 81.5775 128.911 83.2653 126.149 85.1185C125.787 85.3616 125.417 84.898 125.59 84.559C127.184 81.4352 130.273 78.8693 133.368 77.3051C135.02 76.4703 136.827 75.7777 138.654 75.46ZM167.406 74.0607L167.838 74.1492C172.541 75.1326 178.65 77.0969 180.877 81.7178C180.962 82.3712 180.873 82.5113 180.8 82.6028L180.775 82.6332C180.715 82.7113 180.667 82.819 180.384 82.908C180.306 82.8893 180.226 82.8694 180.146 82.8484C179.125 82.5808 178.318 82.2121 177.536 81.8296L176.688 81.4117C175.705 80.9293 174.712 80.4644 173.661 80.1212C171.417 79.3889 169.108 78.8731 166.764 78.5977C166.256 78.538 165.767 78.3665 165.381 78.0725C165.015 77.7935 164.735 77.4071 164.607 76.8936C164.442 76.229 164.489 75.7258 164.846 75.1263C165.114 74.676 165.497 74.3639 165.938 74.1847C166.387 74.002 166.898 73.9589 167.406 74.0607Z" fill="#1A1A1A"/>
<path fill-rule="evenodd" clip-rule="evenodd" d="M137.894 131.129C140.329 125.423 145.643 121.229 151.761 119.696C156.254 118.573 160.97 118.609 165.55 119.054C167.949 119.286 170.523 119.476 172.785 120.368C174.716 121.129 176.29 122.569 177.473 124.259C178.882 126.261 179.84 128.553 180.512 130.902C180.608 131.236 180.698 131.573 180.781 131.911C180.489 133.683 179.868 135.192 178.227 136.306C176.625 137.394 174.715 137.84 172.81 137.998C172.623 137.908 172.443 137.816 172.277 137.721C169.309 136.021 167.22 132.004 163.473 132.548C160.13 133.033 157.929 137.242 155.941 139.71C149.559 140.453 143.182 138.535 137.989 134.884C137.725 133.635 137.71 132.375 137.894 131.129M185.119 126.8C184.609 125.367 183.966 123.979 183.203 122.671C180.684 118.347 176.815 114.901 172.223 112.931C161.36 108.278 147.304 111.558 138.532 119.19C135.535 121.799 132.505 125.632 131.588 129.756C131.315 129.81 131.057 129.952 130.844 130.153C124.506 126.161 117.979 122.32 112.871 116.786C109.162 112.766 106.582 108.008 105.002 102.779C104.873 102.348 104.179 102.411 104.2 102.888C104.206 102.999 104.212 103.11 104.218 103.222C104.152 103.017 103.84 103.122 103.816 103.321C102.966 109.673 101.903 116.407 102.882 122.792C103.468 126.602 105.197 129.391 107.51 132.403C109.988 135.631 112.793 138.633 115.661 141.513C117.481 143.341 119.382 145.449 121.611 146.789C124.203 148.346 127.143 149.53 129.909 150.732C132.723 151.957 135.579 153.09 138.49 154.072C144.307 156.041 150.32 157.403 156.438 157.999C161.336 158.475 166.934 158.993 171.628 157.15C175.226 155.737 178.131 153.183 180.434 150.111C182.942 146.765 184.925 142.954 186.02 138.935C187.159 134.76 185.359 127.474 185.119 126.8" fill="#1A1A1A"/>
<path fill-rule="evenodd" clip-rule="evenodd" d="M181.599 104.606C177.085 106.78 170.789 103.573 167.754 100.213C166.649 98.9899 165.797 95.4901 166.222 93.2704C167.373 87.2591 171.697 83.6513 176.263 82.4193C182.592 80.7111 188.96 85.0385 188.218 90.1452C187.514 94.985 186.447 102.005 181.599 104.606M150.879 93.0583C150.517 99.6094 145.258 105.343 138.973 107.042C128.846 109.869 123.841 102.748 121.574 95.0755C121.349 94.3132 120.819 91.9864 122.24 89.9905C127.829 82.1398 141.426 83.478 148.217 85.6333C150.205 87.535 151.017 90.2797 150.879 93.0583M186.503 81.7592C186.5 81.7632 186.496 81.7665 186.493 81.7704C186.47 81.7562 186.447 81.7418 186.423 81.728C186.449 81.7388 186.477 81.7481 186.503 81.7592M194.975 82.5165C194.387 75.8466 173.467 78.4005 171.021 78.9472C164.346 80.9111 158.581 86.2543 151.118 83.9055C143.385 75.2822 117.345 77.7552 111.886 82.1479C110.853 81.7424 109.596 81.9599 108.265 82.3426C101.428 82.0956 70.2168 84.4534 76.6007 93.1826C77.5697 93.855 78.5378 93.1708 78.5645 91.7857C111.845 79.7676 108.619 91.0246 112.565 89.7098C113.168 89.8834 113.797 89.9932 114.347 90.1088C117.402 91.092 118.439 90.7881 118.841 94.2187C121.606 120.709 156.869 111.566 153.976 89.8374C156.84 89.6798 159.345 88.4412 162.373 89.6506C164.475 110.12 180.941 110.946 185.896 103.85C189.633 98.9252 188.151 91.493 193.287 87.6186C195.315 89.316 195.445 83.5872 194.975 82.5165" fill="#1A1A1A"/>
</svg>
